<?xml version="1.0" standalone="no"?>
<!DOCTYPE svg PUBLIC "-//W3C//DTD SVG 20010904//EN"
 "http://www.w3.org/TR/2001/REC-SVG-20010904/DTD/svg10.dtd">
<svg version="1.0" xmlns="http://www.w3.org/2000/svg"
 width="245.000000pt" height="225.000000pt" viewBox="0 0 245.000000 225.000000"
 preserveAspectRatio="xMidYMid meet">

<g transform="translate(0.000000,225.000000) scale(0.100000,-0.100000)"
fill="#000000" stroke="none">
<path d="M1232 2108 c-7 -7 -12 -19 -12 -27 0 -11 5 -8 16 7 18 25 15 39 -4
20z"/>
<path d="M1275 2069 c-11 -17 0 -20 21 -4 17 13 17 14 2 15 -9 0 -20 -5 -23
-11z"/>
<path d="M1017 2054 c-4 -4 -7 -17 -7 -28 1 -19 1 -20 11 -3 11 19 8 43 -4 31z"/>
<path d="M960 2031 c0 -11 5 -23 10 -26 6 -3 10 3 10 14 0 11 -4 23 -10 26 -5
3 -10 -3 -10 -14z"/>
<path d="M1150 2016 c0 -8 5 -18 10 -21 6 -3 10 1 10 9 0 8 -4 18 -10 21 -5 3
-10 -1 -10 -9z"/>
<path d="M297 2002 c-10 -10 -17 -28 -17 -39 0 -30 -10 -34 -41 -18 -36 19
-56 11 -64 -28 -4 -18 -17 -51 -30 -75 -21 -38 -24 -56 -26 -185 -1 -81 2
-151 8 -162 6 -11 22 -56 37 -101 30 -90 43 -106 156 -181 99 -67 185 -165
211 -242 l20 -58 -31 -67 c-34 -75 -34 -76 -19 -76 12 0 53 89 64 138 6 31 9
33 38 28 l32 -6 -30 16 c-17 9 -52 46 -77 82 -71 104 -123 157 -201 208 -40
26 -82 56 -94 67 -22 20 -60 113 -50 124 8 7 158 -109 188 -144 13 -16 31 -40
40 -53 21 -31 35 -21 18 12 -22 42 -71 92 -142 146 -39 29 -73 55 -75 57 -3 2
6 13 19 24 13 11 19 20 12 21 -6 0 -15 -4 -18 -10 -11 -18 -41 -11 -65 15 -26
28 -26 28 15 49 27 14 32 13 87 -16 33 -17 70 -45 84 -61 14 -17 44 -39 67
-49 23 -11 53 -26 67 -33 15 -8 43 -11 71 -8 59 7 95 -12 176 -90 72 -69 99
-70 32 -1 -77 80 -120 104 -183 104 -31 0 -64 4 -74 9 -153 75 -183 105 -217
215 -26 84 -33 170 -15 181 6 3 10 27 10 53 1 26 7 58 15 72 8 14 14 37 15 53
0 33 10 34 40 2 25 -27 25 -29 12 -195 -5 -63 -5 -122 0 -130 5 -8 14 -42 21
-74 17 -76 43 -92 32 -20 -4 27 -14 69 -22 93 -20 58 -11 100 39 184 41 68 53
75 72 45 13 -21 -20 -98 -43 -98 -12 0 -12 -3 -3 -12 7 -7 12 -42 12 -86 0
-40 5 -83 12 -95 6 -12 14 -37 17 -55 8 -43 25 -46 29 -5 2 18 21 63 43 100
21 37 39 74 39 82 0 31 24 91 36 91 7 0 19 -18 25 -41 11 -34 10 -46 -3 -72
-35 -71 -41 -95 -43 -149 -2 -45 2 -59 14 -63 19 -8 226 -258 260 -316 42 -71
44 -124 10 -257 -21 -81 -36 -123 -51 -135 -11 -10 -18 -20 -15 -24 4 -3 42
22 84 55 43 34 112 83 153 109 66 43 103 76 225 205 43 46 176 110 275 133 41
10 89 24 107 32 18 7 47 13 64 13 18 0 61 14 96 30 73 35 80 36 105 13 17 -16
18 -15 16 7 -2 19 3 26 30 33 44 13 61 -2 39 -36 -19 -30 -95 -75 -139 -84
-18 -3 -37 -13 -42 -20 -4 -8 -24 -22 -43 -30 -54 -22 -103 -65 -103 -90 0
-12 -4 -25 -10 -28 -23 -14 -9 -35 23 -35 29 1 30 2 14 14 -17 13 -17 16 6 57
18 33 35 48 65 59 22 8 48 22 59 31 10 9 33 19 51 22 38 8 114 57 137 89 22
32 19 69 -5 75 -26 7 -25 15 4 50 13 16 35 51 48 77 23 48 51 76 63 64 4 -3
-1 -20 -10 -38 -9 -17 -15 -41 -14 -53 2 -12 -2 -31 -8 -42 -6 -11 -16 -44
-24 -74 -11 -46 -22 -61 -71 -105 -32 -28 -58 -54 -58 -58 0 -20 30 -4 83 45
62 55 76 85 99 217 13 79 57 139 101 140 25 0 22 -10 -22 -63 -38 -46 -61
-113 -46 -137 4 -6 0 -29 -9 -53 -8 -23 -17 -53 -20 -67 -3 -15 -22 -35 -49
-52 -24 -15 -60 -44 -80 -63 -32 -31 -42 -35 -94 -36 l-58 -2 59 -7 c41 -5 64
-4 72 4 6 6 48 40 93 74 60 48 81 70 81 87 0 13 5 36 11 52 6 15 13 51 15 78
3 35 13 60 33 85 43 54 55 47 59 -35 3 -55 -4 -94 -28 -181 l-32 -111 -159
-150 c-189 -179 -198 -183 -380 -183 -116 0 -300 -21 -369 -42 -48 -14 -101
-48 -95 -59 3 -5 30 4 59 20 63 33 152 46 408 61 130 7 177 13 210 29 26 12
104 78 199 170 140 135 157 155 169 198 6 26 19 66 27 88 8 22 16 83 17 141 3
94 2 103 -16 107 -14 4 -18 13 -16 34 3 25 -1 28 -28 31 -19 2 -36 -3 -44 -12
-7 -9 -27 -16 -44 -16 -56 0 -89 -31 -141 -132 -19 -36 -39 -70 -45 -73 -24
-15 -22 8 9 75 18 38 30 74 26 80 -3 5 -21 10 -40 10 -49 0 -88 -39 -146 -146
-45 -84 -54 -94 -78 -94 -41 0 -371 -114 -435 -150 -33 -19 -70 -51 -93 -82
-45 -59 -313 -268 -313 -243 0 9 7 26 15 38 8 13 19 47 25 77 19 100 -36 222
-163 364 -99 110 -147 175 -147 200 0 12 12 69 27 129 l27 107 -24 24 c-14 14
-38 26 -54 28 -29 3 -30 1 -41 -57 -11 -58 -45 -138 -64 -149 -23 -14 -29 156
-7 199 10 19 11 36 5 57 -20 70 -57 77 -91 18 -13 -22 -26 -40 -30 -40 -4 0
-6 23 -5 51 2 47 -1 53 -35 85 -43 39 -49 41 -71 16z m-56 -88 c18 -22 16 -94
-3 -108 -13 -9 -13 -21 -3 -76 6 -36 14 -72 17 -80 3 -8 10 -32 16 -54 l11
-38 -32 7 c-18 4 -46 7 -64 6 -30 -1 -32 1 -38 44 -11 67 4 170 31 228 13 29
24 60 24 70 0 22 23 22 41 1z m1764 -380 c0 -5 -18 -43 -39 -84 -33 -66 -43
-77 -75 -87 -20 -6 -37 -10 -39 -8 -4 4 27 65 43 85 7 8 15 28 19 43 9 40 92
86 91 51z"/>
<path d="M1420 1990 c19 -13 30 -13 30 0 0 6 -10 10 -22 10 -19 0 -20 -2 -8
-10z"/>
<path d="M950 1972 c0 -12 19 -26 26 -19 2 2 -2 10 -11 17 -9 8 -15 8 -15 2z"/>
<path d="M1047 1963 c-11 -10 -8 -43 3 -43 6 0 10 11 10 25 0 26 -2 29 -13 18z"/>
<path d="M1192 1905 c-1 -33 3 -77 9 -98 6 -22 9 -41 7 -43 -6 -6 -86 53 -137
100 l-44 41 28 -38 c15 -20 51 -54 79 -74 82 -59 138 -123 107 -123 -5 0 -14
7 -21 14 -22 27 -110 49 -185 47 -38 -2 -90 -3 -115 -3 -25 -1 -35 -3 -22 -5
21 -4 32 -23 13 -23 -15 0 -71 -50 -71 -63 0 -7 10 0 23 14 12 14 42 36 66 49
38 19 56 22 123 18 43 -3 84 -10 90 -16 9 -9 7 -12 -8 -12 -10 0 -25 -4 -33
-9 -8 -5 3 -7 31 -4 89 10 152 -58 151 -165 0 -48 2 -53 21 -50 17 2 22 12 27
47 11 80 99 129 155 86 10 -8 24 -14 29 -14 6 -1 -1 8 -15 19 -37 29 -101 26
-138 -5 -17 -14 -32 -25 -35 -25 -9 0 -27 70 -27 102 0 51 22 128 47 165 19
29 21 34 6 20 -24 -21 -49 -78 -58 -129 -3 -21 -10 -38 -15 -38 -12 0 -57 77
-65 112 -5 19 1 44 18 83 31 65 27 73 -5 13 l-23 -43 -6 55 -6 55 -1 -60z"/>
<path d="M1295 1950 c-3 -5 1 -10 9 -10 8 0 18 5 21 10 3 6 -1 10 -9 10 -8 0
-18 -4 -21 -10z"/>
<path d="M1420 1930 c-8 -5 -12 -12 -9 -15 4 -3 12 1 19 10 14 17 11 19 -10 5z"/>
<path d="M870 1891 c0 -11 39 -26 47 -17 8 8 3 12 -24 20 -13 4 -23 3 -23 -3z"/>
<path d="M1470 1890 c19 -13 30 -13 30 0 0 6 -10 10 -22 10 -19 0 -20 -2 -8
-10z"/>
<path d="M1008 1853 c7 -3 16 -2 19 1 4 3 -2 6 -13 5 -11 0 -14 -3 -6 -6z"/>
<path d="M895 1829 c-11 -17 1 -21 15 -4 8 9 8 15 2 15 -6 0 -14 -5 -17 -11z"/>
<path d="M1000 1820 c-8 -5 -12 -11 -9 -14 2 -3 11 -1 19 4 8 5 12 11 9 14 -2
3 -11 1 -19 -4z"/>
<path d="M1423 1803 c9 -2 23 -2 30 0 6 3 -1 5 -18 5 -16 0 -22 -2 -12 -5z"/>
<path d="M1345 1770 c-3 -6 1 -7 9 -4 18 7 21 14 7 14 -6 0 -13 -4 -16 -10z"/>
<path d="M1545 1770 c3 -5 11 -10 16 -10 6 0 7 5 4 10 -3 6 -11 10 -16 10 -6
0 -7 -4 -4 -10z"/>
<path d="M814 1755 c11 -8 22 -12 25 -9 6 6 -19 24 -34 24 -5 -1 -1 -7 9 -15z"/>
<path d="M1482 1758 c2 -6 10 -14 16 -16 7 -2 10 2 6 12 -7 18 -28 22 -22 4z"/>
<path d="M1332 1699 c-12 -19 -11 -19 8 -9 11 6 20 15 20 20 0 17 -15 11 -28
-11z"/>
<path d="M953 1688 c-18 -24 -24 -38 -16 -38 10 0 36 40 30 46 -2 3 -9 -1 -14
-8z"/>
<path d="M791 1666 c-8 -9 -11 -19 -7 -23 9 -9 29 13 24 27 -2 8 -8 7 -17 -4z"/>
<path d="M1526 1664 c-22 -21 -20 -27 4 -12 11 7 20 16 20 20 0 12 -7 10 -24
-8z"/>
<path d="M1076 1631 c-4 -7 -5 -15 -2 -18 9 -9 19 4 14 18 -4 11 -6 11 -12 0z"/>
<path d="M862 1610 c0 -14 2 -19 5 -12 2 6 2 18 0 25 -3 6 -5 1 -5 -13z"/>
<path d="M1558 1573 c6 -2 18 -2 25 0 6 3 1 5 -13 5 -14 0 -19 -2 -12 -5z"/>
<path d="M1526 1557 c3 -10 9 -15 12 -12 3 3 0 11 -7 18 -10 9 -11 8 -5 -6z"/>
<path d="M985 1498 c4 -24 11 -44 16 -46 13 -5 11 -30 -3 -34 -15 -5 -12 -282
3 -310 25 -46 30 -11 28 196 -1 118 2 219 5 225 5 7 -4 11 -24 11 -32 0 -32 0
-25 -42z"/>
<path d="M1570 1520 c0 -5 5 -10 10 -10 6 0 10 5 10 10 0 6 -4 10 -10 10 -5 0
-10 -4 -10 -10z"/>
<path d="M1490 1505 c-7 -9 -11 -18 -8 -20 3 -3 11 1 18 10 7 9 11 18 8 20 -3
3 -11 -1 -18 -10z"/>
<path d="M830 1491 c0 -12 5 -21 10 -21 6 0 10 6 10 14 0 8 -4 18 -10 21 -5 3
-10 -3 -10 -14z"/>
<path d="M1561 1434 c0 -11 3 -14 6 -6 3 7 2 16 -1 19 -3 4 -6 -2 -5 -13z"/>
<path d="M1198 1433 c7 -3 16 -2 19 1 4 3 -2 6 -13 5 -11 0 -14 -3 -6 -6z"/>
<path d="M1248 1433 c7 -3 16 -2 19 1 4 3 -2 6 -13 5 -11 0 -14 -3 -6 -6z"/>
<path d="M1290 1430 c0 -5 -6 -10 -14 -10 -34 0 -114 -176 -131 -286 -6 -40
-6 -41 23 -41 30 0 30 2 41 71 7 49 23 98 53 156 42 84 54 120 37 120 -5 0 -9
-4 -9 -10z"/>
<path d="M1480 1405 c-7 -9 -11 -18 -8 -20 3 -3 11 1 18 10 7 9 11 18 8 20 -3
3 -11 -1 -18 -10z"/>
<path d="M1506 1374 c-4 -9 -4 -19 -1 -22 2 -3 7 3 11 12 4 9 4 19 1 22 -2 3
-7 -3 -11 -12z"/>
<path d="M240 709 c0 -5 5 -7 10 -4 6 3 10 8 10 11 0 2 -4 4 -10 4 -5 0 -10
-5 -10 -11z"/>
<path d="M283 663 c-6 -32 -14 -66 -18 -75 -5 -12 -2 -18 8 -18 9 0 16 14 20
43 4 23 9 57 13 75 4 18 2 32 -3 32 -5 0 -14 -26 -20 -57z"/>
<path d="M345 710 c3 -5 8 -10 11 -10 2 0 4 5 4 10 0 6 -5 10 -11 10 -5 0 -7
-4 -4 -10z"/>
<path d="M516 619 c-8 -41 -8 -49 2 -49 4 0 9 18 10 40 3 48 -3 52 -12 9z"/>
<path d="M616 635 c4 -9 0 -15 -7 -15 -11 0 -11 -2 0 -9 13 -8 13 -12 0 -28
-12 -16 -12 -17 2 -6 17 14 24 73 9 73 -5 0 -7 -7 -4 -15z"/>
<path d="M680 632 c0 -10 7 -27 16 -38 15 -18 15 -18 10 6 -3 14 -6 31 -6 38
0 6 -4 12 -10 12 -5 0 -10 -8 -10 -18z"/>
<path d="M736 634 c-9 -25 -7 -64 4 -64 6 0 10 11 10 24 0 13 3 31 6 40 3 9 2
16 -4 16 -5 0 -13 -7 -16 -16z"/>
<path d="M832 610 c-1 -22 1 -40 5 -40 5 0 9 18 10 40 1 52 -11 52 -15 0z"/>
<path d="M890 633 c0 -10 -3 -29 -5 -43 -3 -16 0 -12 9 10 18 43 19 50 6 50
-5 0 -10 -8 -10 -17z"/>
<path d="M934 608 l0 -42 12 29 c17 39 17 55 2 55 -8 0 -13 -15 -14 -42z"/>
<path d="M992 610 c-2 -52 12 -52 15 0 2 22 -1 40 -6 40 -4 0 -8 -18 -9 -40z"/>
<path d="M1052 638 c-7 -7 -11 -21 -11 -32 1 -21 1 -21 6 -1 3 11 10 26 15 33
13 15 6 16 -10 0z"/>
<path d="M1192 610 c-1 -22 1 -40 5 -40 5 0 9 18 10 40 1 52 -11 52 -15 0z"/>
<path d="M1250 635 c-6 -8 -10 -21 -8 -31 2 -11 7 -6 15 15 13 34 11 38 -7 16z"/>
<path d="M1352 617 c-15 -42 -15 -47 2 -47 9 0 12 7 9 19 -3 10 0 22 6 25 13
8 15 36 3 36 -4 0 -13 -15 -20 -33z"/>
<path d="M1420 633 c0 -10 -3 -28 -6 -40 -4 -13 -2 -23 2 -23 5 0 10 18 12 40
1 22 0 40 -3 40 -3 0 -5 -8 -5 -17z"/>
<path d="M1470 625 c-6 -16 -8 -36 -4 -44 5 -11 9 -4 16 23 10 47 3 60 -12 21z"/>
<path d="M1529 643 c-1 -5 0 -16 1 -26 1 -10 -4 -25 -10 -33 -8 -9 -9 -14 -2
-14 6 0 14 5 18 12 11 17 12 68 2 68 -4 0 -9 -3 -9 -7z"/>
<path d="M1568 627 c-3 -13 -1 -32 3 -43 6 -16 8 -15 8 8 1 14 4 33 7 42 3 9
2 16 -4 16 -5 0 -12 -10 -14 -23z"/>
<path d="M431 618 c-1 -15 -9 -32 -18 -37 -17 -10 -17 -10 -1 -11 18 0 34 39
25 62 -3 7 -6 1 -6 -14z"/>
<path d="M791 618 c-5 -13 -6 -29 -4 -35 9 -24 18 -13 18 22 0 41 -3 43 -14
13z"/>
<path d="M372 586 c-7 -27 -11 -50 -9 -53 8 -8 29 56 25 79 -3 17 -7 11 -16
-26z"/>
<path d="M566 614 c-8 -22 -8 -44 2 -44 4 0 8 14 9 30 2 33 -2 38 -11 14z"/>
<path d="M1101 618 c0 -9 -8 -24 -17 -32 -8 -9 -11 -16 -6 -16 16 0 34 28 29
47 -4 16 -5 16 -6 1z"/>
<path d="M1293 599 c-12 -30 -11 -32 3 -17 9 8 14 23 12 33 -2 12 -7 7 -15
-16z"/>
<path d="M470 595 c0 -14 4 -25 9 -25 4 0 6 11 3 25 -2 14 -6 25 -8 25 -2 0
-4 -11 -4 -25z"/>
<path d="M746 508 c-23 -33 -20 -81 7 -104 12 -10 16 -12 10 -4 -20 22 -16 87
7 110 15 15 16 20 6 20 -8 0 -22 -10 -30 -22z"/>
<path d="M838 518 c19 -19 14 -73 -9 -102 -14 -18 -16 -24 -5 -20 20 8 46 49
46 74 0 28 -18 60 -32 60 -9 0 -9 -3 0 -12z"/>
<path d="M996 458 c-12 -39 -15 -68 -7 -68 5 0 11 10 14 23 2 12 8 30 12 40 4
10 3 17 -4 17 -7 0 -13 -6 -15 -12z"/>
<path d="M1037 460 c7 -7 10 -27 7 -44 -4 -22 -3 -27 4 -16 6 8 12 26 14 40 2
18 -2 25 -17 28 -16 3 -17 1 -8 -8z"/>
<path d="M1095 430 c-1 -22 3 -40 7 -40 4 0 8 14 8 30 0 17 0 33 1 37 0 4 -3
9 -8 10 -4 2 -8 -15 -8 -37z"/>
<path d="M1164 462 c-16 -11 -23 -37 -13 -53 6 -10 9 -7 9 13 0 15 8 32 18 37
9 6 13 10 7 11 -5 0 -15 -4 -21 -8z"/>
<path d="M1250 453 c0 -10 -3 -29 -6 -43 -4 -18 -3 -21 4 -10 15 25 23 70 12
70 -5 0 -10 -8 -10 -17z"/>
<path d="M1288 463 c6 -2 12 -21 13 -41 l1 -37 8 35 c10 40 6 50 -18 49 -11 0
-12 -3 -4 -6z"/>
<path d="M1385 460 c3 -5 8 -10 11 -10 2 0 4 5 4 10 0 6 -5 10 -11 10 -5 0 -7
-4 -4 -10z"/>
<path d="M1476 430 c2 -56 8 -57 20 -5 9 39 8 45 -5 45 -12 0 -16 -10 -15 -40z"/>
<path d="M1536 439 c-8 -41 -8 -49 2 -49 4 0 9 18 10 40 3 48 -3 52 -12 9z"/>
<path d="M1590 440 c-9 -21 -10 -34 -3 -41 7 -7 12 2 16 27 8 48 3 53 -13 14z"/>
<path d="M1654 458 c-4 -6 -8 -24 -9 -40 -3 -28 -2 -28 16 -12 17 15 24 13 20
-8 0 -5 4 -8 9 -8 6 0 10 8 10 18 0 9 3 27 6 40 5 19 2 22 -19 22 -14 0 -29
-5 -33 -12z m36 -13 c0 -8 -7 -15 -15 -15 -8 0 -15 7 -15 15 0 8 7 15 15 15 8
0 15 -7 15 -15z"/>
<path d="M950 439 c0 -14 -5 -30 -12 -37 -7 -7 -8 -12 -2 -12 17 0 37 51 24
64 -7 7 -10 2 -10 -15z"/>
<path d="M1200 431 c0 -17 -5 -31 -12 -31 -6 0 -8 -3 -5 -6 10 -10 37 16 37
37 0 10 -4 21 -10 24 -6 4 -10 -7 -10 -24z"/>
<path d="M892 408 c-16 -62 -15 -69 4 -33 8 16 14 41 12 55 -3 20 -6 15 -16
-22z"/>
<path d="M1352 423 c2 -18 9 -28 21 -29 14 -2 14 -1 1 3 -11 3 -14 13 -11 29
2 13 0 24 -5 24 -5 0 -8 -12 -6 -27z"/>
<path d="M1427 403 c-4 -3 -7 -13 -7 -22 1 -13 3 -13 11 2 11 19 8 33 -4 20z"/>
</g>
</svg>
